<?xml version="1.0" encoding="utf-8"?>
<!-- Generated by IcoMoon.io -->
<svg version="1.1" xmlns="http://www.w3.org/2000/svg" xmlns:xlink="http://www.w3.org/1999/xlink" width="624" height="24" viewBox="0 0 624 24">
<svg id="icon-Vector-2" width="33" height="24" viewBox="0 0 33 24" x="0" y="0">
<path fill="#737373" d="M32.64 0.047c-4.121 2.778-4.559 4.795-4.916 5.412-0.342 0.632-0.597 3.126-1.188 4.333-0.597 1.223-2.764 2.187-3.371 2.592-0.597 0.404-1.443 1.975-2.137 3.328-5.513-0.228-8.537 2.011-13.219 4.852 1.499-0.503 2.208-0.866 2.208-0.866 4.804-1.866 7.104-3.54 14.336-2.55 0.056 0 0.097 0.031 0.143 0.041 0.199 0.114 0.27 0.358 0.158 0.56l-2.749 4.966c-0.128 0.244-0.398 0.373-0.668 0.316-6.467-1.234-11.572 0.897-16.264 0.964-3.743 0.057-4.973-1.737-4.973-1.819 0-0.057 0.031-0.088 0.087-0.088 0 0 1.953 0 5.258-0.793 3.754-7.273 7.099-9.818 10.741-9.818 0 0 3.657 0 4.621 3.209 1.163-2.058 1.443-2.55 1.443-2.55 0.27-0.487 1.785-4.002 4.406-7.33 2.627-3.318 4.61-4.142 6.084-4.759z"></path>
</svg>
<svg id="icon-Vector-3" width="57" height="24" viewBox="0 0 57 24" x="80" y="0">
<path fill="#737373" d="M14.822 2.117l-3.889 0.817-0.018 12.644c0 2.335 1.779 3.845 4.141 3.845 1.311 0 2.273-0.24 2.803-0.524v-3.001c-0.512 0.204-3.027 0.932-3.027-1.394v-5.612h3.027v-3.356h-3.027l-0.009-3.419zM22.825 6.699l-0.243-1.163h-3.449v13.603h3.979v-9.155c0.943-1.225 2.533-0.986 3.045-0.826v-3.623c-0.539-0.186-2.398-0.533-3.333 1.163zM31.116 0.279l-4.006 0.844v3.214l4.006-0.844v-3.214zM4.034 9.54c0-0.613 0.521-0.852 1.356-0.861 1.213 0 2.758 0.364 3.97 1.012v-3.712c-1.32-0.515-2.641-0.719-3.961-0.719-3.234 0-5.39 1.669-5.39 4.458 0 4.369 6.063 3.658 6.063 5.541 0 0.728-0.638 0.968-1.527 0.968-1.32 0-3.027-0.542-4.366-1.261v3.552c1.482 0.63 2.982 0.897 4.357 0.897 3.315 0 5.596-1.403 5.596-4.244 0-4.697-6.099-3.854-6.099-5.63zM57.489 12.497c0-4.040-1.976-7.228-5.767-7.228s-6.099 3.188-6.099 7.201c0 4.75 2.722 6.944 6.602 6.944 1.904 0 3.333-0.426 4.419-1.021v-2.966c-1.087 0.542-2.335 0.87-3.916 0.87-1.554 0-2.919-0.542-3.099-2.389h7.806c0.018-0.204 0.054-1.030 0.054-1.412zM49.593 11.005c0-1.776 1.105-2.522 2.102-2.522 0.979 0 2.021 0.746 2.021 2.522h-4.123zM39.452 5.269c-1.563 0-2.569 0.728-3.126 1.234l-0.207-0.977h-3.512v18.185l3.988-0.835 0.009-4.457c0.575 0.417 1.428 0.995 2.821 0.995 2.856 0 5.461-2.060 5.461-7.068 0.009-4.582-2.632-7.077-5.434-7.077zM38.5 16.147c-0.934 0-1.491-0.337-1.877-0.746l-0.027-5.86c0.413-0.453 0.988-0.781 1.904-0.781 1.455 0 2.461 1.616 2.461 3.676 0.009 2.122-0.979 3.712-2.461 3.712zM27.119 19.139h4.006v-13.603h-4.006v13.603z"></path>
</svg>
<svg id="icon-Vector-4" width="40" height="24" viewBox="0 0 40 24" x="160" y="0">
<path fill="#737373" d="M11.386 8.758c-0.044 1.386 0.654 2 0.671 2.389-0.008 0.079-0.035 0.156-0.079 0.222s-0.104 0.122-0.174 0.161l-0.79 0.548c-0.102 0.071-0.223 0.112-0.347 0.117-0.027-0.001-0.505 0.112-1.264-1.567-0.463 0.573-1.051 1.033-1.721 1.345s-1.403 0.469-2.143 0.457c-1.005 0.054-3.727-0.565-3.587-3.439-0.098-2.342 2.102-3.797 4.377-3.674 0.438 0.001 1.333 0.023 2.9 0.384v-0.956c0.166-1.619-0.907-2.875-2.765-2.687-0.148 0.001-1.197-0.031-2.829 0.619-0.454 0.207-0.512 0.173-0.663 0.173-0.457 0-0.269-1.314-0.181-1.481 0.322-0.392 2.213-1.123 4.069-1.112 1.241-0.109 2.476 0.271 3.437 1.057 0.391 0.433 0.689 0.941 0.876 1.491s0.26 1.133 0.214 1.713l-0.001 4.24zM6.052 10.74c2.001-0.029 2.849-1.222 3.042-1.864 0.152-0.615 0.127-1.004 0.127-1.677-0.597-0.142-1.456-0.297-2.441-0.298-0.935-0.070-2.643 0.344-2.576 1.974-0.077 1.027 0.686 1.921 1.849 1.865zM16.6 12.15c-0.485 0.044-0.711-0.297-0.783-0.635l-3.073-10.075c-0.060-0.17-0.099-0.346-0.118-0.525-0.011-0.074 0.007-0.149 0.052-0.21s0.112-0.1 0.186-0.112c0.015-0.002-0.131 0 1.373 0 0.542-0.054 0.718 0.369 0.774 0.635l2.204 8.617 2.046-8.617c0.033-0.197 0.181-0.677 0.79-0.627h1.059c0.134-0.011 0.686-0.031 0.783 0.635l2.062 8.727 2.275-8.727c0.030-0.133 0.168-0.696 0.782-0.635h1.217c0.052-0.008 0.38-0.050 0.324 0.525-0.027 0.113 0.21-0.652-3.255 10.396-0.071 0.337-0.297 0.679-0.782 0.635h-1.153c-0.675 0.070-0.772-0.591-0.783-0.658l-2.046-8.391-2.023 8.382c-0.010 0.067-0.107 0.728-0.783 0.658l-1.129 0.001zM33.477 12.494c-0.363 0.001-2.093-0.018-3.54-0.752-0.144-0.060-0.267-0.162-0.353-0.292s-0.131-0.282-0.129-0.437v-0.658c0-0.517 0.383-0.422 0.545-0.36 0.62 0.248 1.017 0.437 1.778 0.587 2.262 0.461 3.257-0.141 3.5-0.274 0.812-0.478 0.876-1.571 0.324-2.139-0.647-0.538-0.955-0.558-3.279-1.285-0.286-0.079-2.697-0.833-2.702-3.204-0.038-1.728 1.546-3.438 4.29-3.424 0.782-0.001 2.865 0.253 3.429 0.956 0.083 0.128 0.125 0.278 0.118 0.431v0.619c0 0.272-0.1 0.408-0.301 0.408-0.476-0.053-1.32-0.683-3.034-0.658-0.425-0.022-2.462 0.056-2.37 1.528-0.027 1.16 1.642 1.595 1.833 1.645 2.25 0.671 3.002 0.783 3.895 1.81 1.058 1.361 0.487 2.955 0.268 3.392-1.177 2.294-4.222 2.107-4.274 2.106zM35.958 18.911c-4.322 3.165-10.595 4.849-15.952 4.849-7.228 0.047-14.212-2.588-19.579-7.387-0.403-0.36-0.048-0.854 0.442-0.579 5.954 3.377 12.696 5.152 19.555 5.147 5.123-0.027 10.189-1.058 14.909-3.032 0.727-0.306 1.343 0.477 0.625 1.002zM37.759 16.874c-0.553-0.705-3.658-0.329-5.049-0.165-0.419 0.047-0.49-0.313-0.11-0.579 2.473-1.724 6.534-1.23 7.001-0.65s-0.126 4.614-2.441 6.542c-0.355 0.298-0.696 0.141-0.538-0.251 0.521-1.3 1.69-4.191 1.137-4.896z"></path>
</svg>
<svg id="icon-Vector-5" width="25" height="24" viewBox="0 0 25 24" x="240" y="0">
<path fill="#737373" d="M22.332 9.259c-0.787 0-1.48 0.327-1.989 0.838-1.874-1.302-4.399-2.14-7.197-2.23l1.454-6.579 4.63 1.044c0 1.139 0.924 2.067 2.058 2.067 1.155 0 2.084-0.954 2.084-2.093s-0.924-2.093-2.084-2.093c-0.808 0-1.507 0.49-1.853 1.16l-5.113-1.139c-0.257-0.069-0.509 0.116-0.577 0.374l-1.596 7.254c-2.777 0.116-5.275 0.954-7.155 2.256-0.509-0.532-1.228-0.859-2.016-0.859-2.919 0-3.874 3.933-1.202 5.277-0.094 0.416-0.136 0.859-0.136 1.302 0 4.418 4.955 7.998 11.039 7.998 6.11 0 11.065-3.58 11.065-7.998 0-0.443-0.047-0.907-0.163-1.323 2.619-1.35 1.653-5.256-1.249-5.256zM6.012 14.815c0-1.16 0.924-2.093 2.084-2.093 1.134 0 2.058 0.928 2.058 2.093 0 1.139-0.924 2.067-2.058 2.067-1.155 0.005-2.084-0.928-2.084-2.067zM17.261 19.745c-1.911 1.919-7.302 1.919-9.212 0-0.21-0.184-0.21-0.511 0-0.722 0.184-0.184 0.509-0.184 0.693 0 1.459 1.503 6.299 1.529 7.821 0 0.184-0.184 0.509-0.184 0.693 0 0.215 0.211 0.215 0.538 0.005 0.722zM17.219 16.887c-1.134 0-2.058-0.928-2.058-2.067 0-1.16 0.924-2.093 2.058-2.093 1.155 0 2.084 0.928 2.084 2.093-0.005 1.133-0.929 2.067-2.084 2.067z"></path>
</svg>
<svg id="icon-Vector" width="71" height="24" viewBox="0 0 71 24" x="280" y="0">
<path fill="#737373" d="M15.947 22.234l4.227 0.088c-1.457-0.504-2.869-1.116-4.227-1.839v1.751zM22.314 21.654v0.58l-2.141 0.088c4.028 1.368 7.714 1.554 10.451 0.788-2.196 0.022-5.054-0.285-8.31-1.456zM67.439 9.045c1.755 0 3.189-1.412 3.189-3.163s-1.424-2.682-3.189-2.682c-1.755 0-3.189 0.941-3.189 2.682s1.424 3.163 3.189 3.163zM64.239 22.234h6.39v-12.095h-6.39v12.095zM56.106 22.234h6.39v-21.377l-6.39 2.988v18.389zM52.684 9.165c-2.009-1.992-5.562-1.872-5.562-1.872s-3.564-0.12-5.562 1.872c-2.009 1.992-1.854 3.711-1.854 5.757s-0.155 3.754 1.854 5.747c2.009 1.992 5.562 1.872 5.562 1.872s3.565 0.12 5.562-1.872c2.009-1.992 1.854-3.7 1.854-5.747-0.011-2.058 0.144-3.776-1.854-5.757zM48.292 17.035c0 0.394-0.199 1.368-1.181 1.368s-1.181-0.974-1.181-1.368v-4.422c0-0.952 0.806-1.193 1.181-1.193s1.181 0.23 1.181 1.193v4.422zM36.572 9.165c-2.008-1.992-5.562-1.872-5.562-1.872s-3.553-0.12-5.562 1.872c-0.21 0.208-0.408 0.427-0.585 0.657-4.216-3.24-8.001-5.090-11.268-6.688v-2.266l-2.483 1.16c-6.003-2.419-9.822-1.992-10.738 0.011 0 0-2.748 3.59 6.82 12.128v8.067h6.39v-3.13c-0.717-0.46-1.435-0.952-2.141-1.489-1.633-1.226-3.024-2.364-4.238-3.437v-3.393c1.446 1.609 3.366 3.437 5.893 5.506l0.497 0.394v-3.262c0-0.755 0.188-1.992 1.192-1.992s1.17 0.755 1.17 1.642v5.331c1.986 1.335 4.116 2.419 6.368 3.24v-10.278c0-2.047-1.479-4.094-4.481-4.094-1.744-0.011-3.366 0.898-4.249 2.397v-5.943c4.624 2.288 9.259 5.090 11.025 6.381-1.126 1.598-1.026 3.076-1.026 4.783 0 2.047-0.154 3.754 1.854 5.747s5.562 1.872 5.562 1.872 3.565 0.12 5.562-1.872c2.009-1.992 1.843-3.7 1.843-5.747 0-2.025 0.166-3.743-1.843-5.725zM7.195 3.845v6.929c-5.374-5.965-4.293-8.319-3.885-8.658 1.49-1.248 4.138-0.876 7.107 0.23l-3.222 1.5zM32.191 17.035c0 0.394-0.199 1.368-1.181 1.368s-1.181-0.974-1.181-1.368v-4.422c0-0.952 0.806-1.193 1.181-1.193s1.181 0.23 1.181 1.193v4.422z"></path>
</svg>
<svg id="icon-Vector-1" width="34" height="24" viewBox="0 0 34 24" x="360" y="0">
<path fill="#737373" d="M0.203 0.405h5.13v13.836c0 2.194 0.989 3.501 1.794 4.044-0.837 0.736-3.376 1.386-5.289-0.186-1.121-0.928-1.635-2.473-1.635-3.912v-13.783zM32.245 11.908v-1.459h1.569v-5.092h-1.721c-0.666-3.070-3.376-5.35-6.614-5.35-3.732 0-6.772 3.050-6.772 6.809v11.881c1.055 0.152 2.334-0.020 3.409-0.928 1.128-0.928 1.635-2.466 1.635-3.912v-0.444h2.559v-5.092h-2.559v-1.545c0-2.294 3.442-2.294 3.442 0v5.112c0 3.752 3.033 6.809 6.772 6.809v-5.072c-0.956 0-1.721-0.776-1.721-1.717zM12.838 5.344v7.492c0 1.021-1.569 1.021-1.569 0v-7.492h-5.064v8.798c0 1.578 0.528 3.58 2.967 4.236 2.44 0.65 3.838-0.703 3.838-0.703-0.138 0.888-0.956 1.545-2.301 1.677-1.022 0.106-2.321-0.239-2.967-0.517v4.661c1.655 0.497 3.396 0.65 5.117 0.312 3.106-0.603 5.064-3.209 5.064-6.683v-11.814h-5.084v0.033z"></path>
</svg>
<svg id="icon-Vector-6" width="28" height="24" viewBox="0 0 28 24" x="440" y="0">
<path fill="#23a6f0" d="M0 3.429c0-0.909 0.364-1.781 1.013-2.424s1.528-1.004 2.445-1.004h23.339c0.229 0 0.449 0.090 0.611 0.251s0.253 0.379 0.253 0.606c0 0.227-0.091 0.445-0.253 0.606s-0.382 0.251-0.611 0.251h-0.864v3.429c0.459 0 0.898 0.181 1.222 0.502s0.506 0.758 0.506 1.212v14.571c0 0.682-0.273 1.336-0.76 1.818s-1.146 0.753-1.834 0.753h-20.746c-1.146 0-2.246-0.452-3.056-1.255s-1.266-1.894-1.266-3.030v-16.286zM1.729 6.398v13.317c0 0.682 0.273 1.336 0.76 1.818s1.146 0.753 1.834 0.753h20.746c0.229 0 0.449-0.090 0.611-0.251s0.253-0.379 0.253-0.606v-14.571h-22.475c-0.607 0.001-1.204-0.158-1.729-0.459zM1.729 3.429c0 0.455 0.182 0.891 0.506 1.212s0.764 0.502 1.222 0.502h20.746v-3.429h-20.746c-0.459 0-0.898 0.181-1.222 0.502s-0.506 0.758-0.506 1.212z"></path>
</svg>
</svg>
